<svg xmlns="http://www.w3.org/2000/svg" xml:space="preserve" width="512" height="512" viewBox="0 0 512 512"><path fill="#9bc4f9" d="M451.999 405.149H60.001c-15.607 0-28.259-12.652-28.259-28.259V83.467c0-15.607 12.652-28.259 28.259-28.259H452c15.607 0 28.259 12.652 28.259 28.259V376.89c0 15.607-12.652 28.259-28.26 28.259" data-original="#9bc4f9"/><path fill="#bcd6f9" d="M312.296 481.107H199.704l25.35-97.665h61.892z" data-original="#bcd6f9"/><path fill="#eaf2ff" d="M356.089 504.5H155.911c-5.402 0-9.781-4.379-9.781-9.781 0-20.437 16.568-37.005 37.005-37.005h145.729c20.437 0 37.005 16.568 37.005 37.005 0 5.402-4.379 9.781-9.78 9.781" data-original="#eaf2ff"/><path fill="#dbe8f9" d="M328.864 457.714h-60.552c17.288 0 31.303 14.015 31.303 31.303V504.5h56.473c5.402 0 9.781-4.379 9.781-9.781 0-20.437-16.567-37.005-37.005-37.005" data-original="#dbe8f9"/><path fill="#7fb2f9" d="M451.999 55.208H385.97c15.607 0 28.259 12.652 28.259 28.259V376.89c0 15.607-12.652 28.259-28.259 28.259h66.029c15.607 0 28.259-12.652 28.259-28.259V83.467c.001-15.607-12.651-28.259-28.259-28.259" data-original="#7fb2f9"/><path fill="#eaf2ff" d="M31.741 351.716v25.174c0 15.607 12.652 28.259 28.259 28.259h391.999c15.607 0 28.26-12.652 28.26-28.259v-25.174z" data-original="#eaf2ff"/><path fill="#dbe8f9" d="M414.23 351.716v25.174c0 15.607-12.652 28.259-28.259 28.259H452c15.607 0 28.26-12.652 28.26-28.259v-25.174z" data-original="#dbe8f9"/><path fill="#c9e0fd" d="M234.249 24.684c-14.546-14.546-35.117-19.973-53.816-15.839-5.014 1.109-6.79 7.359-3.159 10.99L205.36 47.92c8.259 8.259 8.259 21.648 0 29.907s-21.648 8.259-29.907 0l-28.085-28.085c-3.631-3.631-9.881-1.855-10.99 3.159-4.135 18.699 1.293 39.27 15.839 53.816 10.495 10.495 24.011 16.127 37.748 16.896a32 32 0 0 1 1.663.149c14.259 1.578 27.532 8.046 37.676 18.19l124.413 124.413c11.096 11.096 29.085 11.096 40.181 0s11.096-29.085 0-40.181L269.484 101.771c-10.144-10.144-16.612-23.417-18.19-37.676a32 32 0 0 1-.149-1.663c-.769-13.737-6.401-27.253-16.896-37.748" data-original="#c9e0fd"/><path fill="#ffddce" d="M371.872 194.244c-3.594-3.271-8.288-4.571-12.826-4.043-.658.076-1.317-.128-1.779-.603l-.122-.126a2.055 2.055 0 0 1-.125-2.726c.786-.968 1.751-2.223 2.163-3.023 3.055-5.929 2.252-13.388-2.675-18.327-5.406-5.42-12.934-6.77-19.119-3.891-.235.109-.76.27-.972.014-.221-.266.02-.731.163-.931 4.517-6.324 4.317-15.164-1.133-20.99-5.082-5.433-12.918-6.646-19.191-3.572-.071.035-.579.288-.752.078-.275-.335.187-.792.187-.792l1.656-1.656c6.262-6.262 6.843-16.465.882-23.014-6.36-6.987-17.211-7.152-23.816-.547l-39.988 39.923q-.462.46-.953.85l-.203.202c-4.309 4.309-10.665 4.184-14.972-.126L228.1 140.779c-9.32 9.865-14.81 22.969-13.206 36.465l1.698 14.276a28.55 28.55 0 0 1-8.161 23.556l-43.823 43.823 70.72 70.72 52.097-52.097a28.6 28.6 0 0 1 8.903-6.037l23.297-10.023a120 120 0 0 0 31.897-22.826l20.925-20.596c6.605-6.606 6.414-17.435-.575-23.796" data-original="#ffddce"/><path fill="#ffcbbe" d="M371.872 194.244c-3.594-3.271-8.288-4.571-12.826-4.043-.658.076-1.317-.128-1.779-.603l-.122-.126a2.055 2.055 0 0 1-.125-2.726c.786-.968 1.751-2.223 2.163-3.023 3.055-5.929 2.252-13.388-2.675-18.327-5.406-5.42-12.934-6.77-19.119-3.891l-32.233 30.766a120 120 0 0 1-31.897 22.826l-23.297 10.023a28.5 28.5 0 0 0-8.903 6.037l-17.535 17.535s12.237 12.237 1.251 22.643c-4.85 4.85-12.174 5.718-17.91 2.604l-13.543 13.677 42.004 42.004 52.097-52.097a28.6 28.6 0 0 1 8.903-6.037l23.297-10.023a120 120 0 0 0 31.897-22.826l20.925-20.596c6.607-6.607 6.416-17.436-.573-23.797" data-original="#ffcbbe"/><path fill="#ffe07d" d="m221.818 351.715 47.156-47.155-78.329-78.329L65.161 351.715z" data-original="#ffe07d"/><path fill="#ffd064" d="M224.775 271.333c-4.85 4.85-12.174 5.718-17.91 2.604l-77.014 77.778h91.967l47.156-47.156-39.995-39.995c-.575 2.249-1.862 4.551-4.204 6.769" data-original="#ffd064"/><path fill="#ffd064" d="M174.486 221.045c-5.907 5.907-5.907 15.485 0 21.392l75.263 75.263c5.907 5.907 15.484 5.907 21.392 0s5.907-15.484 0-21.392l-75.263-75.263c-5.907-5.907-15.484-5.907-21.392 0" data-original="#ffd064"/><path fill="#ffc250" d="M223.524 248.691s12.237 12.237 1.251 22.643c-4.85 4.85-12.174 5.718-17.91 2.604l-.437.441 43.32 43.32c5.907 5.907 15.485 5.907 21.392 0s5.907-15.484 0-21.392z" data-original="#ffc250"/><path d="M480.18 113.011a7.597 7.597 0 0 0 7.597-7.597V83.518c0-19.766-16.081-35.846-35.846-35.846H256.3a65.5 65.5 0 0 0-16.672-28.288C223.807 3.561 200.507-3.29 178.82 1.505a14.07 14.07 0 0 0-10.463 9.803 14.15 14.15 0 0 0 3.573 13.973l22.391 22.391h-38.305l-3.24-3.24c-6.701-6.701-17.943-5.02-22.414 3.24H60.07c-19.766 0-35.846 16.08-35.846 35.846v293.32c0 19.766 16.081 35.846 35.846 35.846h149.543l-9.695 37.353h-16.756c-24.587 0-44.589 20.002-44.589 44.588 0 9.58 7.794 17.375 17.374 17.375h200.107c9.58 0 17.374-7.795 17.374-17.375 0-24.586-20.002-44.588-44.589-44.588h-16.756l-9.696-37.353H451.93c19.766 0 35.846-16.08 35.846-35.846V141.124c0-4.196-3.401-7.597-7.597-7.597s-7.597 3.401-7.597 7.597v202.951H240.171l14.994-14.994c7.385 1.749 15.508-.207 21.342-6.041 7.433-7.433 8.627-18.778 3.585-27.47l12.692-12.693a20.9 20.9 0 0 1 6.531-4.428c25.756-11.085 23.353-10.041 23.638-10.181a128 128 0 0 0 13.931-7.97l11.425 11.427c14.069 14.068 36.84 14.07 50.91-.001 14.068-14.067 14.07-36.84 0-50.91l-14.406-14.406c-.002-6.691-2.72-13.082-7.87-17.769a23.5 23.5 0 0 0-9.474-5.238c2.578-8.204.526-17.186-5.62-23.349-4.148-4.158-9.284-6.676-14.603-7.396.52-6.563-1.608-13.219-6.282-18.216-3.266-3.492-7.34-5.838-11.7-6.94 1.893-7.581.11-15.831-5.443-21.932-9.405-10.332-25.259-10.343-34.792-.808l-2.934 2.93-11.245-11.245c-8.947-8.948-14.631-20.712-16.004-33.128l-.048-.451H451.93c11.388 0 20.653 9.265 20.653 20.652v21.896a7.597 7.597 0 0 0 7.597 7.597M203.965 62.866a13.5 13.5 0 0 1-3.959 9.642c-5.304 5.304-13.87 5.283-19.153 0l-9.642-9.642zm124.874 402.365c16.208 0 29.395 13.187 29.395 29.394a2.183 2.183 0 0 1-2.18 2.181H155.946a2.184 2.184 0 0 1-2.181-2.181c0-16.208 13.187-29.394 29.395-29.394zm-113.225-15.194 9.695-37.353h61.381l9.696 37.353zm256.969-90.768v17.569c0 11.387-9.265 20.652-20.653 20.652H60.069c-11.388 0-20.653-9.265-20.653-20.652v-17.569zm-253.9-15.194H83.569l37.441-37.441a7.597 7.597 0 0 0-10.743-10.744l-48.186 48.186H39.417V83.518c0-11.387 9.265-20.652 20.653-20.652h67.469c-.643 18.108 6.303 36.226 19.343 49.266a65.47 65.47 0 0 0 42.685 19.103c8.208.46 18.976 4.03 27.886 10.555-7.932 10.977-11.572 23.876-10.087 36.37l1.697 14.271a20.81 20.81 0 0 1-5.987 17.278l-4.018 4.019c-8.84-6.825-21.685-6.28-29.912 1.948-7.131 7.129-8.384 17.579-4.471 25.809l-29.251 29.251a7.597 7.597 0 0 0 10.743 10.744l28.327-28.327 67.557 67.556zm47.08-31.779a7.52 7.52 0 0 1-10.64-.001l-75.236-75.236a7.52 7.52 0 0 1-.001-10.64l.001-.001a7.52 7.52 0 0 1 10.64.001c7.593 7.593 69.82 69.823 75.236 75.235 2.934 2.935 2.934 7.708 0 10.642m113.244-90.209 9.47 9.47c8.112 8.111 8.112 21.311 0 29.422-8.112 8.11-21.31 8.111-29.423.001l-9.886-9.886c5.848-4.962 29.2-28.262 29.839-29.007m-79.236-106.58c3.507-3.507 9.351-3.52 12.817.289 3.123 3.43 2.837 9.047-.635 12.52l-1.624 1.623c-6.588 6.512.605 17.154 9.247 12.941 3.48-1.705 7.616-.925 10.294 1.939 2.834 3.029 3.043 7.814.495 11.382-5.097 7.15 2.193 15.956 10.201 12.213 3.388-1.574 7.52-.647 10.527 2.367 2.421 2.427 2.953 6.199 1.334 9.409-.078.124-.428.657-1.342 1.783-5.505 6.784.197 16.789 8.801 15.787 2.579-.3 5.004.451 6.831 2.115 3.87 3.522 3.756 9.356.359 12.754-20.39 19.748-29.492 31.471-50.655 41.919l-23.109 9.942a36 36 0 0 0-11.27 7.641l-12.156 12.157-59.952-59.952 3.885-3.885c7.881-7.882 11.647-18.749 10.331-29.817l-1.697-14.271c-.968-8.142 1.294-16.656 6.29-24.197l4.187 4.173c7.053 7.056 18.161 7.62 25.643.196 1.192-.999-.983 1.05 41.198-41.028m-35.663-8.319 11.236 11.236c-50.478 50.208-12.931 12.862-27.447 27.301-1.373 1.374-2.923 1.174-4.231-.135l-10.193-10.162a8 8 0 0 0-.279-.264c-12.259-11.569-28.655-18.314-42.782-19.1a50.3 50.3 0 0 1-32.788-14.677c-11.684-11.684-17.022-28.641-14.199-44.708l.017-.094 26.666 26.667c11.231 11.231 29.408 11.232 40.64 0 5.428-5.428 8.417-12.645 8.417-20.32s-2.989-14.893-8.417-20.321l-26.666-26.666c16.095-2.863 33.096 2.476 44.802 14.183 12.782 12.782 13.867 25.896 14.86 34.861 1.753 15.832 8.985 30.818 20.364 42.199" data-original="#000000"/></svg>